# xmcd CD database file
#
# Track frame offsets:
#	150
#	23840
#	36667
#	51880
#	66415
#	81592
#	97402
#	112662
#	124962
#	141527
#	155370
#	167440
#	181087
#	197670
#	215267
#	228785
#
# Disc length: 3237 seconds
#
# Revision: 6
# Processed by: cddbd v1.5.2PL0 Copyright (c) Steve Scherf et al.
# Submitted via: CDex 1.51
#
DISCID=e40ca310
DTITLE=David Allan Coe - 16 Biggest Hits
DYEAR=2009
DGENRE=Country
TTITLE0=You Never Even Called Me By My Name
TTITLE1=Would You Lay With Me (In A Field Of Stone)
TTITLE2=Longhaired Redneck
TTITLE3=Willie, Waylon, And Me
TTITLE4=Lately I've Been Thinking Too Much Lately
TTITLE5=If This Is Just A Game
TTITLE6=Now I Lay Me Down To Cheat
TTITLE7=Cheap Thrills
TTITLE8=Mona Lisa Lost Her Smile
TTITLE9=She Used To Love Me A Lot
TTITLE10=I'm Gonna Hurt Her On The Radio
TTITLE11=Need A Little Time Off For Bad Behavior
TTITLE12=Tanya Montana
TTITLE13=Son Of The South
TTITLE14=Tennessee Whiskey
TTITLE15=The Ride
EXTD=YEAR: 2009
EXTT0=
EXTT1=
EXTT2=
EXTT3=
EXTT4=
EXTT5=
EXTT6=
EXTT7=
EXTT8=
EXTT9=
EXTT10=
EXTT11=
EXTT12=
EXTT13=
EXTT14=
EXTT15=
PLAYORDER=
